<!DOCTYPE svg PUBLIC "-//W3C//DTD SVG 1.1//EN" "http://www.w3.org/Graphics/SVG/1.1/DTD/svg11.dtd">
<!-- Uploaded to: SVG Repo, www.svgrepo.com, Transformed by: SVG Repo Mixer Tools -->
<svg fill="#004aad" width="800px" height="800px" viewBox="0 0 32 32" id="Outlined" xmlns="http://www.w3.org/2000/svg" stroke="#004aad" stroke-width="0.00032">
<g id="SVGRepo_bgCarrier" stroke-width="0"/>
<g id="SVGRepo_tracerCarrier" stroke-linecap="round" stroke-linejoin="round"/>
<g id="SVGRepo_iconCarrier"> <title/> <g id="Fill"> <polygon points="12 15 11 15 11 17 12 17 20 17 21 17 21 15 20 15 12 15"/> <polygon points="12 19 11 19 11 21 12 21 15 21 16 21 16 19 15 19 12 19"/> <path d="M20.41,3H5V26a3,3,0,0,0,3,3H24a3,3,0,0,0,3-3V9.59ZM20,5.41,24.59,10H21a1,1,0,0,1-1-1ZM24,27H8a1,1,0,0,1-1-1V5H18V9a3,3,0,0,0,3,3h4V26A1,1,0,0,1,24,27Z"/> </g> </g>
</svg>