<svg xmlns="http://www.w3.org/2000/svg" xmlns:xlink="http://www.w3.org/1999/xlink" width="1080" zoomAndPan="magnify" viewBox="0 0 810 809.999993" height="1080" preserveAspectRatio="xMidYMid meet" version="1.0"><defs><g/><clipPath id="d266bef754"><path d="M 416.183594 409.613281 L 680.789062 409.613281 L 680.789062 466.785156 L 416.183594 466.785156 Z M 416.183594 409.613281 " clip-rule="nonzero"/></clipPath><clipPath id="f1b6d9d4c7"><path d="M 129.207031 344.492188 L 250.226562 344.492188 L 250.226562 465.507812 L 129.207031 465.507812 Z M 129.207031 344.492188 " clip-rule="nonzero"/></clipPath><clipPath id="b76a21eae2"><path d="M 250.226562 405 C 250.226562 371.582031 223.132812 344.492188 189.714844 344.492188 C 156.296875 344.492188 129.207031 371.582031 129.207031 405 C 129.207031 438.417969 156.296875 465.507812 189.714844 465.507812 C 223.132812 465.507812 250.226562 438.417969 250.226562 405 Z M 250.226562 405 " clip-rule="nonzero"/></clipPath><clipPath id="55b5902525"><path d="M 143.085938 385 L 236.355469 385 L 236.355469 435.277344 L 143.085938 435.277344 Z M 143.085938 385 " clip-rule="nonzero"/></clipPath><clipPath id="68101dd9bc"><path d="M 149 374.746094 L 230 374.746094 L 230 430 L 149 430 Z M 149 374.746094 " clip-rule="nonzero"/></clipPath></defs><rect x="-81" width="972" fill="#ffffff" y="-80.999999" height="971.999992" fill-opacity="1"/><rect x="-81" width="972" fill="#000000" y="-80.999999" height="971.999992" fill-opacity="1"/><g fill="#ffffff" fill-opacity="1"><g transform="translate(264.33251, 395.117221)"><g><path d="M 2.953125 0 L 2.953125 -51.390625 L 13.109375 -51.390625 C 16.921875 -51.390625 19.691406 -50.570312 21.421875 -48.9375 C 23.160156 -47.3125 24.09375 -44.660156 24.21875 -40.984375 C 24.300781 -38.628906 24.34375 -36.550781 24.34375 -34.75 C 24.34375 -32.945312 24.300781 -31 24.21875 -28.90625 C 24.039062 -24.113281 22.457031 -21.03125 19.46875 -19.65625 L 25.046875 0 L 17.671875 0 L 12.90625 -18.5 L 9.953125 -18.5 L 9.953125 0 Z M 9.953125 -24.671875 L 13.046875 -24.671875 C 15.742188 -24.671875 17.15625 -25.953125 17.28125 -28.515625 C 17.488281 -32.796875 17.488281 -37.054688 17.28125 -41.296875 C 17.15625 -43.910156 15.765625 -45.21875 13.109375 -45.21875 L 9.953125 -45.21875 Z M 9.953125 -24.671875 "/></g></g></g><g fill="#ffffff" fill-opacity="1"><g transform="translate(294.395943, 395.117221)"><g><path d="M 2.953125 0 L 2.953125 -51.390625 L 21.328125 -51.390625 L 21.328125 -45.21875 L 9.953125 -45.21875 L 9.953125 -29.09375 L 20.6875 -29.09375 L 20.6875 -22.9375 L 9.953125 -22.9375 L 9.953125 -6.171875 L 21.328125 -6.171875 L 21.328125 0 Z M 2.953125 0 "/></g></g></g><g fill="#ffffff" fill-opacity="1"><g transform="translate(320.926272, 395.117221)"><g><path d="M 8.09375 0 L 1.484375 -51.390625 L 8.671875 -51.390625 L 12.015625 -24.21875 L 13.109375 -6.171875 L 14.515625 -6.171875 L 15.609375 -24.21875 L 18.953125 -51.390625 L 26.140625 -51.390625 L 19.59375 0 Z M 8.09375 0 "/></g></g></g><g fill="#ffffff" fill-opacity="1"><g transform="translate(352.017516, 395.117221)"><g><path d="M 2.953125 0 L 2.953125 -51.390625 L 9.953125 -51.390625 L 9.953125 0 Z M 2.953125 0 "/></g></g></g><g fill="#ffffff" fill-opacity="1"><g transform="translate(368.398229, 395.117221)"><g><path d="M 14.125 0.515625 C 10.269531 0.515625 7.53125 -0.304688 5.90625 -1.953125 C 4.28125 -3.609375 3.382812 -6.34375 3.21875 -10.15625 C 3.164062 -11.644531 3.148438 -13.097656 3.171875 -14.515625 C 3.203125 -15.929688 3.28125 -17.410156 3.40625 -18.953125 L 9.953125 -18.953125 C 9.867188 -17.191406 9.816406 -15.453125 9.796875 -13.734375 C 9.773438 -12.023438 9.828125 -10.421875 9.953125 -8.921875 C 10.035156 -7.640625 10.410156 -6.695312 11.078125 -6.09375 C 11.742188 -5.5 12.757812 -5.203125 14.125 -5.203125 C 15.457031 -5.203125 16.429688 -5.5 17.046875 -6.09375 C 17.671875 -6.695312 18.023438 -7.640625 18.109375 -8.921875 C 18.242188 -10.378906 18.300781 -11.695312 18.28125 -12.875 C 18.257812 -14.050781 18.203125 -15.429688 18.109375 -17.015625 C 18.023438 -18.265625 17.769531 -19.335938 17.34375 -20.234375 C 16.914062 -21.128906 16.144531 -21.726562 15.03125 -22.03125 L 10.734375 -23.125 C 7.816406 -23.851562 5.820312 -25.113281 4.75 -26.90625 C 3.675781 -28.707031 3.097656 -31.148438 3.015625 -34.234375 C 3.015625 -35.390625 3.015625 -36.566406 3.015625 -37.765625 C 3.015625 -38.960938 3.035156 -40.140625 3.078125 -41.296875 C 3.210938 -45.109375 4.101562 -47.828125 5.75 -49.453125 C 7.394531 -51.085938 10.1875 -51.90625 14.125 -51.90625 C 17.8125 -51.90625 20.488281 -51.085938 22.15625 -49.453125 C 23.832031 -47.828125 24.734375 -45.109375 24.859375 -41.296875 C 24.898438 -40.234375 24.910156 -38.941406 24.890625 -37.421875 C 24.867188 -35.898438 24.835938 -34.367188 24.796875 -32.828125 L 18.109375 -32.828125 C 18.148438 -34.453125 18.179688 -36.066406 18.203125 -37.671875 C 18.234375 -39.273438 18.203125 -40.890625 18.109375 -42.515625 C 18.023438 -44.960938 16.675781 -46.1875 14.0625 -46.1875 C 12.738281 -46.1875 11.753906 -45.882812 11.109375 -45.28125 C 10.472656 -44.6875 10.109375 -43.765625 10.015625 -42.515625 C 9.890625 -41.148438 9.835938 -39.769531 9.859375 -38.375 C 9.878906 -36.988281 9.929688 -35.609375 10.015625 -34.234375 C 10.109375 -32.816406 10.378906 -31.703125 10.828125 -30.890625 C 11.273438 -30.078125 12.097656 -29.523438 13.296875 -29.234375 L 17.15625 -28.328125 C 20.195312 -27.597656 22.25 -26.300781 23.3125 -24.4375 C 24.382812 -22.570312 24.984375 -20.097656 25.109375 -17.015625 C 25.160156 -15.648438 25.171875 -14.472656 25.140625 -13.484375 C 25.117188 -12.503906 25.085938 -11.394531 25.046875 -10.15625 C 24.921875 -6.34375 24.019531 -3.609375 22.34375 -1.953125 C 20.675781 -0.304688 17.9375 0.515625 14.125 0.515625 Z M 14.125 0.515625 "/></g></g></g><g fill="#ffffff" fill-opacity="1"><g transform="translate(400.003373, 395.117221)"><g><path d="M 2.953125 0 L 2.953125 -51.390625 L 9.953125 -51.390625 L 9.953125 0 Z M 2.953125 0 "/></g></g></g><g fill="#ffffff" fill-opacity="1"><g transform="translate(416.384086, 395.117221)"><g><path d="M 14.125 0.515625 C 10.269531 0.515625 7.5 -0.296875 5.8125 -1.921875 C 4.125 -3.554688 3.234375 -6.273438 3.140625 -10.078125 C 2.929688 -20.484375 2.929688 -30.910156 3.140625 -41.359375 C 3.234375 -45.128906 4.125 -47.828125 5.8125 -49.453125 C 7.5 -51.085938 10.269531 -51.90625 14.125 -51.90625 C 17.976562 -51.90625 20.738281 -51.085938 22.40625 -49.453125 C 24.082031 -47.828125 24.984375 -45.128906 25.109375 -41.359375 C 25.367188 -30.867188 25.367188 -20.441406 25.109375 -10.078125 C 24.984375 -6.273438 24.082031 -3.554688 22.40625 -1.921875 C 20.738281 -0.296875 17.976562 0.515625 14.125 0.515625 Z M 14.125 -5.203125 C 16.738281 -5.203125 18.085938 -6.421875 18.171875 -8.859375 C 18.304688 -12.421875 18.382812 -16.128906 18.40625 -19.984375 C 18.425781 -23.835938 18.414062 -27.6875 18.375 -31.53125 C 18.332031 -35.382812 18.265625 -39.070312 18.171875 -42.59375 C 18.085938 -44.988281 16.738281 -46.1875 14.125 -46.1875 C 11.476562 -46.1875 10.128906 -44.988281 10.078125 -42.59375 C 9.953125 -39.070312 9.867188 -35.382812 9.828125 -31.53125 C 9.785156 -27.6875 9.785156 -23.835938 9.828125 -19.984375 C 9.867188 -16.128906 9.953125 -12.421875 10.078125 -8.859375 C 10.128906 -6.421875 11.476562 -5.203125 14.125 -5.203125 Z M 14.125 -5.203125 "/></g></g></g><g fill="#ffffff" fill-opacity="1"><g transform="translate(448.117702, 395.117221)"><g><path d="M 2.953125 0 L 2.953125 -51.390625 L 13.75 -51.390625 L 17.09375 -35.078125 L 21.265625 -6.171875 L 22.734375 -6.171875 L 21.515625 -31.34375 L 21 -51.390625 L 27.75 -51.390625 L 27.75 0 L 16.515625 0 L 13.046875 -17.59375 L 9.640625 -45.28125 L 8.03125 -45.28125 L 9.125 -19.59375 L 9.703125 0 Z M 2.953125 0 "/></g></g></g><g fill="#ffffff" fill-opacity="1"><g transform="translate(482.292379, 395.117221)"><g/></g></g><g fill="#ffffff" fill-opacity="1"><g transform="translate(499.508199, 395.117221)"><g><path d="M 1.484375 0 L 7.765625 -51.390625 L 19.328125 -51.390625 L 25.625 0 L 18.5625 0 L 17.34375 -12.84375 L 9.828125 -12.84375 L 8.609375 0 Z M 10.46875 -18.953125 L 16.640625 -18.953125 L 15.546875 -30.25 L 14.453125 -45.21875 L 12.65625 -45.21875 L 11.5625 -30.25 Z M 10.46875 -18.953125 "/></g></g></g><g fill="#ffffff" fill-opacity="1"><g transform="translate(529.892821, 395.117221)"><g><path d="M 14 0.578125 C 10.101562 0.578125 7.332031 -0.242188 5.6875 -1.890625 C 4.039062 -3.546875 3.171875 -6.273438 3.078125 -10.078125 C 3.035156 -13.296875 3.003906 -16.703125 2.984375 -20.296875 C 2.960938 -23.890625 2.960938 -27.484375 2.984375 -31.078125 C 3.003906 -34.679688 3.035156 -38.085938 3.078125 -41.296875 C 3.117188 -44.640625 3.992188 -47.242188 5.703125 -49.109375 C 7.421875 -50.972656 10.1875 -51.90625 14 -51.90625 C 17.769531 -51.90625 20.5 -51.078125 22.1875 -49.421875 C 23.882812 -47.773438 24.773438 -45.066406 24.859375 -41.296875 C 24.898438 -40.140625 24.921875 -38.726562 24.921875 -37.0625 C 24.921875 -35.394531 24.898438 -33.984375 24.859375 -32.828125 L 17.921875 -32.828125 C 17.921875 -34.234375 17.929688 -35.835938 17.953125 -37.640625 C 17.972656 -39.441406 17.960938 -41.066406 17.921875 -42.515625 C 17.878906 -44.960938 16.570312 -46.1875 14 -46.1875 C 11.4375 -46.1875 10.109375 -44.960938 10.015625 -42.515625 C 9.890625 -37.078125 9.828125 -31.46875 9.828125 -25.6875 C 9.828125 -19.90625 9.890625 -14.296875 10.015625 -8.859375 C 10.109375 -6.378906 11.4375 -5.140625 14 -5.140625 C 16.738281 -5.140625 18.128906 -6.378906 18.171875 -8.859375 C 18.222656 -10.359375 18.25 -12.039062 18.25 -13.90625 C 18.25 -15.769531 18.222656 -17.429688 18.171875 -18.890625 L 25.109375 -18.890625 C 25.160156 -17.472656 25.1875 -16.015625 25.1875 -14.515625 C 25.1875 -13.015625 25.160156 -11.535156 25.109375 -10.078125 C 25.023438 -6.273438 24.113281 -3.546875 22.375 -1.890625 C 20.644531 -0.242188 17.851562 0.578125 14 0.578125 Z M 14 0.578125 "/></g></g></g><g fill="#ffffff" fill-opacity="1"><g transform="translate(560.470165, 395.117221)"><g><path d="M 14 0.578125 C 10.101562 0.578125 7.332031 -0.242188 5.6875 -1.890625 C 4.039062 -3.546875 3.171875 -6.273438 3.078125 -10.078125 C 3.035156 -13.296875 3.003906 -16.703125 2.984375 -20.296875 C 2.960938 -23.890625 2.960938 -27.484375 2.984375 -31.078125 C 3.003906 -34.679688 3.035156 -38.085938 3.078125 -41.296875 C 3.117188 -44.640625 3.992188 -47.242188 5.703125 -49.109375 C 7.421875 -50.972656 10.1875 -51.90625 14 -51.90625 C 17.769531 -51.90625 20.5 -51.078125 22.1875 -49.421875 C 23.882812 -47.773438 24.773438 -45.066406 24.859375 -41.296875 C 24.898438 -40.140625 24.921875 -38.726562 24.921875 -37.0625 C 24.921875 -35.394531 24.898438 -33.984375 24.859375 -32.828125 L 17.921875 -32.828125 C 17.921875 -34.234375 17.929688 -35.835938 17.953125 -37.640625 C 17.972656 -39.441406 17.960938 -41.066406 17.921875 -42.515625 C 17.878906 -44.960938 16.570312 -46.1875 14 -46.1875 C 11.4375 -46.1875 10.109375 -44.960938 10.015625 -42.515625 C 9.890625 -37.078125 9.828125 -31.46875 9.828125 -25.6875 C 9.828125 -19.90625 9.890625 -14.296875 10.015625 -8.859375 C 10.109375 -6.378906 11.4375 -5.140625 14 -5.140625 C 16.738281 -5.140625 18.128906 -6.378906 18.171875 -8.859375 C 18.222656 -10.359375 18.25 -12.039062 18.25 -13.90625 C 18.25 -15.769531 18.222656 -17.429688 18.171875 -18.890625 L 25.109375 -18.890625 C 25.160156 -17.472656 25.1875 -16.015625 25.1875 -14.515625 C 25.1875 -13.015625 25.160156 -11.535156 25.109375 -10.078125 C 25.023438 -6.273438 24.113281 -3.546875 22.375 -1.890625 C 20.644531 -0.242188 17.851562 0.578125 14 0.578125 Z M 14 0.578125 "/></g></g></g><g fill="#ffffff" fill-opacity="1"><g transform="translate(591.047509, 395.117221)"><g><path d="M 2.953125 0 L 2.953125 -51.390625 L 21.328125 -51.390625 L 21.328125 -45.21875 L 9.953125 -45.21875 L 9.953125 -29.09375 L 20.6875 -29.09375 L 20.6875 -22.9375 L 9.953125 -22.9375 L 9.953125 -6.171875 L 21.328125 -6.171875 L 21.328125 0 Z M 2.953125 0 "/></g></g></g><g fill="#ffffff" fill-opacity="1"><g transform="translate(617.577837, 395.117221)"><g><path d="M 14.125 0.515625 C 10.269531 0.515625 7.53125 -0.304688 5.90625 -1.953125 C 4.28125 -3.609375 3.382812 -6.34375 3.21875 -10.15625 C 3.164062 -11.644531 3.148438 -13.097656 3.171875 -14.515625 C 3.203125 -15.929688 3.28125 -17.410156 3.40625 -18.953125 L 9.953125 -18.953125 C 9.867188 -17.191406 9.816406 -15.453125 9.796875 -13.734375 C 9.773438 -12.023438 9.828125 -10.421875 9.953125 -8.921875 C 10.035156 -7.640625 10.410156 -6.695312 11.078125 -6.09375 C 11.742188 -5.5 12.757812 -5.203125 14.125 -5.203125 C 15.457031 -5.203125 16.429688 -5.5 17.046875 -6.09375 C 17.671875 -6.695312 18.023438 -7.640625 18.109375 -8.921875 C 18.242188 -10.378906 18.300781 -11.695312 18.28125 -12.875 C 18.257812 -14.050781 18.203125 -15.429688 18.109375 -17.015625 C 18.023438 -18.265625 17.769531 -19.335938 17.34375 -20.234375 C 16.914062 -21.128906 16.144531 -21.726562 15.03125 -22.03125 L 10.734375 -23.125 C 7.816406 -23.851562 5.820312 -25.113281 4.75 -26.90625 C 3.675781 -28.707031 3.097656 -31.148438 3.015625 -34.234375 C 3.015625 -35.390625 3.015625 -36.566406 3.015625 -37.765625 C 3.015625 -38.960938 3.035156 -40.140625 3.078125 -41.296875 C 3.210938 -45.109375 4.101562 -47.828125 5.75 -49.453125 C 7.394531 -51.085938 10.1875 -51.90625 14.125 -51.90625 C 17.8125 -51.90625 20.488281 -51.085938 22.15625 -49.453125 C 23.832031 -47.828125 24.734375 -45.109375 24.859375 -41.296875 C 24.898438 -40.234375 24.910156 -38.941406 24.890625 -37.421875 C 24.867188 -35.898438 24.835938 -34.367188 24.796875 -32.828125 L 18.109375 -32.828125 C 18.148438 -34.453125 18.179688 -36.066406 18.203125 -37.671875 C 18.234375 -39.273438 18.203125 -40.890625 18.109375 -42.515625 C 18.023438 -44.960938 16.675781 -46.1875 14.0625 -46.1875 C 12.738281 -46.1875 11.753906 -45.882812 11.109375 -45.28125 C 10.472656 -44.6875 10.109375 -43.765625 10.015625 -42.515625 C 9.890625 -41.148438 9.835938 -39.769531 9.859375 -38.375 C 9.878906 -36.988281 9.929688 -35.609375 10.015625 -34.234375 C 10.109375 -32.816406 10.378906 -31.703125 10.828125 -30.890625 C 11.273438 -30.078125 12.097656 -29.523438 13.296875 -29.234375 L 17.15625 -28.328125 C 20.195312 -27.597656 22.25 -26.300781 23.3125 -24.4375 C 24.382812 -22.570312 24.984375 -20.097656 25.109375 -17.015625 C 25.160156 -15.648438 25.171875 -14.472656 25.140625 -13.484375 C 25.117188 -12.503906 25.085938 -11.394531 25.046875 -10.15625 C 24.921875 -6.34375 24.019531 -3.609375 22.34375 -1.953125 C 20.675781 -0.304688 17.9375 0.515625 14.125 0.515625 Z M 14.125 0.515625 "/></g></g></g><g fill="#ffffff" fill-opacity="1"><g transform="translate(649.182971, 395.117221)"><g><path d="M 14.125 0.515625 C 10.269531 0.515625 7.53125 -0.304688 5.90625 -1.953125 C 4.28125 -3.609375 3.382812 -6.34375 3.21875 -10.15625 C 3.164062 -11.644531 3.148438 -13.097656 3.171875 -14.515625 C 3.203125 -15.929688 3.28125 -17.410156 3.40625 -18.953125 L 9.953125 -18.953125 C 9.867188 -17.191406 9.816406 -15.453125 9.796875 -13.734375 C 9.773438 -12.023438 9.828125 -10.421875 9.953125 -8.921875 C 10.035156 -7.640625 10.410156 -6.695312 11.078125 -6.09375 C 11.742188 -5.5 12.757812 -5.203125 14.125 -5.203125 C 15.457031 -5.203125 16.429688 -5.5 17.046875 -6.09375 C 17.671875 -6.695312 18.023438 -7.640625 18.109375 -8.921875 C 18.242188 -10.378906 18.300781 -11.695312 18.28125 -12.875 C 18.257812 -14.050781 18.203125 -15.429688 18.109375 -17.015625 C 18.023438 -18.265625 17.769531 -19.335938 17.34375 -20.234375 C 16.914062 -21.128906 16.144531 -21.726562 15.03125 -22.03125 L 10.734375 -23.125 C 7.816406 -23.851562 5.820312 -25.113281 4.75 -26.90625 C 3.675781 -28.707031 3.097656 -31.148438 3.015625 -34.234375 C 3.015625 -35.390625 3.015625 -36.566406 3.015625 -37.765625 C 3.015625 -38.960938 3.035156 -40.140625 3.078125 -41.296875 C 3.210938 -45.109375 4.101562 -47.828125 5.75 -49.453125 C 7.394531 -51.085938 10.1875 -51.90625 14.125 -51.90625 C 17.8125 -51.90625 20.488281 -51.085938 22.15625 -49.453125 C 23.832031 -47.828125 24.734375 -45.109375 24.859375 -41.296875 C 24.898438 -40.234375 24.910156 -38.941406 24.890625 -37.421875 C 24.867188 -35.898438 24.835938 -34.367188 24.796875 -32.828125 L 18.109375 -32.828125 C 18.148438 -34.453125 18.179688 -36.066406 18.203125 -37.671875 C 18.234375 -39.273438 18.203125 -40.890625 18.109375 -42.515625 C 18.023438 -44.960938 16.675781 -46.1875 14.0625 -46.1875 C 12.738281 -46.1875 11.753906 -45.882812 11.109375 -45.28125 C 10.472656 -44.6875 10.109375 -43.765625 10.015625 -42.515625 C 9.890625 -41.148438 9.835938 -39.769531 9.859375 -38.375 C 9.878906 -36.988281 9.929688 -35.609375 10.015625 -34.234375 C 10.109375 -32.816406 10.378906 -31.703125 10.828125 -30.890625 C 11.273438 -30.078125 12.097656 -29.523438 13.296875 -29.234375 L 17.15625 -28.328125 C 20.195312 -27.597656 22.25 -26.300781 23.3125 -24.4375 C 24.382812 -22.570312 24.984375 -20.097656 25.109375 -17.015625 C 25.160156 -15.648438 25.171875 -14.472656 25.140625 -13.484375 C 25.117188 -12.503906 25.085938 -11.394531 25.046875 -10.15625 C 24.921875 -6.34375 24.019531 -3.609375 22.34375 -1.953125 C 20.675781 -0.304688 17.9375 0.515625 14.125 0.515625 Z M 14.125 0.515625 "/></g></g></g><g fill="#ffffff" fill-opacity="1"><g transform="translate(264.33251, 462.443629)"><g><path d="M 2.953125 0 L 2.953125 -51.390625 L 13.109375 -51.390625 C 16.921875 -51.390625 19.691406 -50.570312 21.421875 -48.9375 C 23.160156 -47.3125 24.09375 -44.660156 24.21875 -40.984375 C 24.300781 -38.628906 24.34375 -36.5 24.34375 -34.59375 C 24.34375 -32.6875 24.300781 -30.679688 24.21875 -28.578125 C 24.09375 -24.898438 23.160156 -22.242188 21.421875 -20.609375 C 19.691406 -18.984375 16.898438 -18.171875 13.046875 -18.171875 L 9.953125 -18.171875 L 9.953125 0 Z M 9.953125 -24.34375 L 13.046875 -24.34375 C 15.742188 -24.34375 17.15625 -25.648438 17.28125 -28.265625 C 17.363281 -30.316406 17.40625 -32.488281 17.40625 -34.78125 C 17.40625 -37.070312 17.363281 -39.242188 17.28125 -41.296875 C 17.15625 -43.910156 15.765625 -45.21875 13.109375 -45.21875 L 9.953125 -45.21875 Z M 9.953125 -24.34375 "/></g></g></g><g fill="#ffffff" fill-opacity="1"><g transform="translate(293.625085, 462.443629)"><g><path d="M 14.125 0.515625 C 10.269531 0.515625 7.5 -0.296875 5.8125 -1.921875 C 4.125 -3.554688 3.234375 -6.273438 3.140625 -10.078125 C 2.929688 -20.484375 2.929688 -30.910156 3.140625 -41.359375 C 3.234375 -45.128906 4.125 -47.828125 5.8125 -49.453125 C 7.5 -51.085938 10.269531 -51.90625 14.125 -51.90625 C 17.976562 -51.90625 20.738281 -51.085938 22.40625 -49.453125 C 24.082031 -47.828125 24.984375 -45.128906 25.109375 -41.359375 C 25.367188 -30.867188 25.367188 -20.441406 25.109375 -10.078125 C 24.984375 -6.273438 24.082031 -3.554688 22.40625 -1.921875 C 20.738281 -0.296875 17.976562 0.515625 14.125 0.515625 Z M 14.125 -5.203125 C 16.738281 -5.203125 18.085938 -6.421875 18.171875 -8.859375 C 18.304688 -12.421875 18.382812 -16.128906 18.40625 -19.984375 C 18.425781 -23.835938 18.414062 -27.6875 18.375 -31.53125 C 18.332031 -35.382812 18.265625 -39.070312 18.171875 -42.59375 C 18.085938 -44.988281 16.738281 -46.1875 14.125 -46.1875 C 11.476562 -46.1875 10.128906 -44.988281 10.078125 -42.59375 C 9.953125 -39.070312 9.867188 -35.382812 9.828125 -31.53125 C 9.785156 -27.6875 9.785156 -23.835938 9.828125 -19.984375 C 9.867188 -16.128906 9.953125 -12.421875 10.078125 -8.859375 C 10.128906 -6.421875 11.476562 -5.203125 14.125 -5.203125 Z M 14.125 -5.203125 "/></g></g></g><g fill="#ffffff" fill-opacity="1"><g transform="translate(325.358703, 462.443629)"><g><path d="M 2.953125 0 L 2.953125 -51.390625 L 9.953125 -51.390625 L 9.953125 0 Z M 2.953125 0 "/></g></g></g><g fill="#ffffff" fill-opacity="1"><g transform="translate(341.73942, 462.443629)"><g><path d="M 2.953125 0 L 2.953125 -51.390625 L 13.75 -51.390625 L 17.09375 -35.078125 L 21.265625 -6.171875 L 22.734375 -6.171875 L 21.515625 -31.34375 L 21 -51.390625 L 27.75 -51.390625 L 27.75 0 L 16.515625 0 L 13.046875 -17.59375 L 9.640625 -45.28125 L 8.03125 -45.28125 L 9.125 -19.59375 L 9.703125 0 Z M 2.953125 0 "/></g></g></g><g fill="#ffffff" fill-opacity="1"><g transform="translate(375.914088, 462.443629)"><g><path d="M 8.921875 0 L 8.921875 -45.21875 L 1.484375 -45.21875 L 1.484375 -51.390625 L 23.25 -51.390625 L 23.25 -45.21875 L 15.859375 -45.21875 L 15.859375 0 Z M 8.921875 0 "/></g></g></g><g clip-path="url(#d266bef754)"><path fill="#ffffff" d="M 416.183594 409.613281 L 680.832031 409.613281 L 680.832031 466.785156 L 416.183594 466.785156 Z M 416.183594 409.613281 " fill-opacity="1" fill-rule="nonzero"/></g><g clip-path="url(#f1b6d9d4c7)"><g clip-path="url(#b76a21eae2)"><path fill="#ffffff" d="M 250.226562 344.492188 L 250.226562 465.507812 L 129.207031 465.507812 L 129.207031 344.492188 Z M 250.226562 344.492188 " fill-opacity="1" fill-rule="nonzero"/></g></g><g clip-path="url(#55b5902525)"><path fill="#1b1919" d="M 230.777344 385.207031 L 230.761719 385.363281 L 227.285156 423.894531 L 227.132812 425.648438 L 225.378906 425.417969 L 224.070312 425.246094 C 221.453125 424.910156 218.878906 424.730469 216.421875 424.730469 C 204.554688 424.730469 197.339844 428.738281 194.097656 431.128906 L 189.722656 431.460938 L 189.710938 431.460938 L 185.332031 431.128906 C 182.09375 428.738281 174.875 424.730469 163.011719 424.730469 C 160.550781 424.730469 157.976562 424.910156 155.359375 425.246094 L 154.050781 425.417969 L 152.296875 425.648438 L 152.144531 423.894531 L 148.671875 385.363281 L 148.652344 385.207031 L 143.117188 385.207031 L 148.761719 428.839844 L 185.992188 435.277344 L 193.441406 435.277344 L 230.667969 428.839844 L 236.316406 385.207031 L 230.777344 385.207031 " fill-opacity="1" fill-rule="nonzero"/></g><g clip-path="url(#68101dd9bc)"><path fill="#1b1919" d="M 154.980469 382.886719 L 155.191406 385.097656 L 158.039062 415.070312 L 159.019531 415.21875 C 159.199219 415.238281 172.941406 417.351562 182.21875 424.375 C 177.765625 422.308594 171.460938 420.488281 163.085938 420.488281 C 160.898438 420.488281 158.589844 420.613281 156.125 420.882812 L 152.917969 385.207031 L 152.726562 383.09375 C 153.507812 383.003906 154.253906 382.945312 154.980469 382.886719 Z M 178.023438 382.792969 C 184.1875 386.054688 187.453125 389.789062 188.402344 391.003906 L 188.402344 426.738281 C 180.398438 417.023438 164.542969 413.617188 160.378906 412.871094 L 157.722656 384.84375 L 157.011719 377.371094 C 166.132812 377.8125 173.035156 380.148438 178.023438 382.792969 Z M 191.03125 391.003906 C 191.980469 389.789062 195.242188 386.054688 201.40625 382.792969 C 206.398438 380.148438 213.296875 377.8125 222.421875 377.371094 L 221.710938 384.84375 L 219.054688 412.871094 C 214.890625 413.617188 199.035156 417.023438 191.03125 426.738281 Z M 224.238281 385.097656 L 224.453125 382.886719 C 225.179688 382.945312 225.921875 383.003906 226.703125 383.09375 L 226.515625 385.207031 L 223.304688 420.882812 C 220.839844 420.613281 218.53125 420.488281 216.34375 420.488281 C 207.972656 420.488281 201.667969 422.308594 197.214844 424.375 C 206.488281 417.351562 220.234375 415.238281 220.410156 415.21875 L 221.394531 415.070312 Z M 153.828125 423.742188 L 155.144531 423.574219 C 164.136719 422.382812 171.171875 423.324219 176.433594 424.925781 C 176.949219 425.089844 177.449219 425.246094 177.933594 425.417969 C 178.417969 425.589844 178.878906 425.765625 179.328125 425.941406 C 179.777344 426.121094 180.207031 426.300781 180.625 426.484375 C 182.699219 427.40625 184.363281 428.390625 185.628906 429.253906 C 185.882812 429.433594 186.121094 429.601562 186.339844 429.765625 L 193.09375 429.765625 C 193.3125 429.601562 193.550781 429.433594 193.804688 429.253906 C 195.070312 428.390625 196.730469 427.40625 198.804688 426.484375 C 199.222656 426.300781 199.652344 426.121094 200.105469 425.941406 C 200.554688 425.765625 201.015625 425.589844 201.5 425.417969 C 201.984375 425.246094 202.480469 425.089844 202.996094 424.925781 C 208.257812 423.324219 215.296875 422.382812 224.289062 423.574219 L 225.601562 423.742188 L 229.074219 385.207031 L 229.464844 380.84375 L 228.238281 380.703125 C 227 380.554688 225.816406 380.4375 224.691406 380.359375 L 225.222656 374.742188 L 223.789062 374.777344 C 211.289062 375.101562 202.628906 378.71875 197.019531 382.34375 C 193.339844 384.726562 190.976562 387.113281 189.722656 388.578125 L 189.714844 388.574219 L 189.710938 388.578125 C 188.457031 387.113281 186.09375 384.726562 182.414062 382.34375 C 176.804688 378.71875 168.140625 375.101562 155.644531 374.777344 L 154.210938 374.742188 L 154.742188 380.359375 C 153.617188 380.4375 152.433594 380.554688 151.195312 380.703125 L 149.96875 380.84375 L 150.359375 385.207031 L 153.828125 423.742188 " fill-opacity="1" fill-rule="nonzero"/></g></svg>